<?xml version="1.0" encoding="utf-8"?>
<svg viewBox="0 0 500 500" xmlns="http://www.w3.org/2000/svg">
  <defs>
    <linearGradient gradientUnits="userSpaceOnUse" x1="220.789" y1="323.168" x2="220.789" y2="490.906" id="gradient-0" gradientTransform="matrix(0.999971, 0.004782, -0.011806, 0.988793, -4.099259, 2.879423)">
      <stop offset="0" style="stop-color: rgba(31, 137, 219, 1)"/>
      <stop offset="1" style="stop-color: rgb(244, 42, 140);"/>
    </linearGradient>
    <linearGradient x1="50%" y1="0%" x2="50%" y2="100%" id="ggglitch-grad">
      <stop stop-color="hsl(206, 75%, 49%)" stop-opacity="1" offset="0.45"/>
      <stop stop-color="hsl(331, 90%, 56%)" stop-opacity="1" offset="1"/>
    </linearGradient>
    <clipPath id="SvgjsClipPath1586">
      <rect width="53.333333333333336" height="800" x="0" y="0"/>
      <rect width="53.333333333333336" height="800" x="106.66666666666667" y="0"/>
      <rect width="53.333333333333336" height="800" x="213.33333333333334" y="0"/>
      <rect width="53.333333333333336" height="800" x="320" y="0"/>
      <rect width="53.333333333333336" height="800" x="426.6666666666667" y="0"/>
      <rect width="53.333333333333336" height="800" x="533.3333333333334" y="0"/>
      <rect width="53.333333333333336" height="800" x="640" y="0"/>
      <rect width="53.333333333333336" height="800" x="746.6666666666667" y="0"/>
      <rect width="53.333333333333336" height="800" x="853.3333333333334" y="0"/>
      <rect width="53.333333333333336" height="800" x="960" y="0"/>
      <rect width="53.333333333333336" height="800" x="1066.6666666666667" y="0"/>
      <rect width="53.333333333333336" height="800" x="1173.3333333333335" y="0"/>
      <rect width="53.333333333333336" height="800" x="1280" y="0"/>
      <rect width="53.333333333333336" height="800" x="1386.6666666666667" y="0"/>
      <rect width="53.333333333333336" height="800" x="1493.3333333333335" y="0"/>
      <rect width="53.333333333333336" height="800" x="1600" y="0"/>
    </clipPath>
    <clipPath id="SvgjsClipPath1587">
      <rect width="53.333333333333336" height="800" x="53.333333333333336" y="0"/>
      <rect width="53.333333333333336" height="800" x="160" y="0"/>
      <rect width="53.333333333333336" height="800" x="266.6666666666667" y="0"/>
      <rect width="53.333333333333336" height="800" x="373.33333333333337" y="0"/>
      <rect width="53.333333333333336" height="800" x="480.00000000000006" y="0"/>
      <rect width="53.333333333333336" height="800" x="586.6666666666666" y="0"/>
      <rect width="53.333333333333336" height="800" x="693.3333333333334" y="0"/>
      <rect width="53.333333333333336" height="800" x="800" y="0"/>
      <rect width="53.333333333333336" height="800" x="906.6666666666666" y="0"/>
      <rect width="53.333333333333336" height="800" x="1013.3333333333334" y="0"/>
      <rect width="53.333333333333336" height="800" x="1120.0000000000002" y="0"/>
      <rect width="53.333333333333336" height="800" x="1226.6666666666667" y="0"/>
      <rect width="53.333333333333336" height="800" x="1333.3333333333335" y="0"/>
      <rect width="53.333333333333336" height="800" x="1440.0000000000002" y="0"/>
      <rect width="53.333333333333336" height="800" x="1546.6666666666667" y="0"/>
    </clipPath>
  </defs>
  <text style="fill: url(#gradient-0); font-family: Arial, sans-serif; font-size: 150px; font-weight: 700; white-space: pre;" transform="matrix(1.132324, 0, 0, 1.788974, 0, -378.219238)" x="0" y="459.081">WINS!</text>
  <g stroke-width="48" stroke="url(#ggglitch-grad)" fill="none" transform="matrix(0.235849, 0, 0, 0.22805, 155.660416, 5.473208)">
    <polygon points="-24,24 24,-24 824,776 776,824" stroke="none" fill="url(#ggglitch-grad)" clip-path="url(#SvgjsClipPath1586)" opacity="0.21" transform="translate(0 29)"/>
    <polygon points="-24,24 24,-24 824,776 776,824" stroke="none" fill="url(#ggglitch-grad)" clip-path="url(#SvgjsClipPath1587)"/>
    <polygon points="776,-24 824,24 24,824 -24,776" stroke="none" fill="url(#ggglitch-grad)" clip-path="url(#SvgjsClipPath1586)" opacity="0.21" transform="translate(0 29)"/>
    <polygon points="776,-24 824,24 24,824 -24,776" stroke="none" fill="url(#ggglitch-grad)" clip-path="url(#SvgjsClipPath1587)"/>
  </g>
</svg>