<svg xmlns="http://www.w3.org/2000/svg" version="1.1" xmlns:xlink="http://www.w3.org/1999/xlink" xmlns:svgjs="http://svgjs.dev/svgjs" viewBox="0 0 800 800"><defs><linearGradient x1="50%" y1="0%" x2="50%" y2="100%" id="ggglitch-grad"><stop stop-color="hsl(206, 75%, 49%)" stop-opacity="1" offset="45%"></stop><stop stop-color="hsl(331, 90%, 56%)" stop-opacity="1" offset="100%"></stop></linearGradient><clipPath id="SvgjsClipPath1586"><rect width="53.333333333333336" height="800" x="0" y="0"></rect><rect width="53.333333333333336" height="800" x="106.66666666666667" y="0"></rect><rect width="53.333333333333336" height="800" x="213.33333333333334" y="0"></rect><rect width="53.333333333333336" height="800" x="320" y="0"></rect><rect width="53.333333333333336" height="800" x="426.6666666666667" y="0"></rect><rect width="53.333333333333336" height="800" x="533.3333333333334" y="0"></rect><rect width="53.333333333333336" height="800" x="640" y="0"></rect><rect width="53.333333333333336" height="800" x="746.6666666666667" y="0"></rect><rect width="53.333333333333336" height="800" x="853.3333333333334" y="0"></rect><rect width="53.333333333333336" height="800" x="960" y="0"></rect><rect width="53.333333333333336" height="800" x="1066.6666666666667" y="0"></rect><rect width="53.333333333333336" height="800" x="1173.3333333333335" y="0"></rect><rect width="53.333333333333336" height="800" x="1280" y="0"></rect><rect width="53.333333333333336" height="800" x="1386.6666666666667" y="0"></rect><rect width="53.333333333333336" height="800" x="1493.3333333333335" y="0"></rect><rect width="53.333333333333336" height="800" x="1600" y="0"></rect></clipPath><clipPath id="SvgjsClipPath1587"><rect width="53.333333333333336" height="800" x="53.333333333333336" y="0"></rect><rect width="53.333333333333336" height="800" x="160" y="0"></rect><rect width="53.333333333333336" height="800" x="266.6666666666667" y="0"></rect><rect width="53.333333333333336" height="800" x="373.33333333333337" y="0"></rect><rect width="53.333333333333336" height="800" x="480.00000000000006" y="0"></rect><rect width="53.333333333333336" height="800" x="586.6666666666666" y="0"></rect><rect width="53.333333333333336" height="800" x="693.3333333333334" y="0"></rect><rect width="53.333333333333336" height="800" x="800" y="0"></rect><rect width="53.333333333333336" height="800" x="906.6666666666666" y="0"></rect><rect width="53.333333333333336" height="800" x="1013.3333333333334" y="0"></rect><rect width="53.333333333333336" height="800" x="1120.0000000000002" y="0"></rect><rect width="53.333333333333336" height="800" x="1226.6666666666667" y="0"></rect><rect width="53.333333333333336" height="800" x="1333.3333333333335" y="0"></rect><rect width="53.333333333333336" height="800" x="1440.0000000000002" y="0"></rect><rect width="53.333333333333336" height="800" x="1546.6666666666667" y="0"></rect></clipPath></defs><g stroke-width="48" stroke="url(#ggglitch-grad)" fill="none"><polygon points="-24,24 24,-24 824,776 776,824" stroke="none" fill="url(#ggglitch-grad)" clip-path="url(&quot;#SvgjsClipPath1586&quot;)" opacity="0.21" transform="translate(0 29)"></polygon><polygon points="-24,24 24,-24 824,776 776,824" stroke="none" fill="url(#ggglitch-grad)" clip-path="url(&quot;#SvgjsClipPath1587&quot;)"></polygon><polygon points="776,-24 824,24 24,824 -24,776" stroke="none" fill="url(#ggglitch-grad)" clip-path="url(&quot;#SvgjsClipPath1586&quot;)" opacity="0.21" transform="translate(0 29)"></polygon><polygon points="776,-24 824,24 24,824 -24,776" stroke="none" fill="url(#ggglitch-grad)" clip-path="url(&quot;#SvgjsClipPath1587&quot;)"></polygon></g></svg>